<mxfile host="Electron" modified="2024-07-14T21:24:02.063Z" agent="Mozilla/5.0 (Windows NT 10.0; Win64; x64) AppleWebKit/537.36 (KHTML, like Gecko) draw.io/24.6.4 Chrome/124.0.6367.207 Electron/30.0.6 Safari/537.36" etag="qcZJUCsYyKQ5kjOSiI9b" version="24.6.4" type="device">
  <diagram name="Page-1" id="Erb57f21vQnedk5ynFs2">
    <mxGraphModel dx="5630" dy="4987" grid="1" gridSize="10" guides="1" tooltips="1" connect="1" arrows="1" fold="1" page="1" pageScale="1" pageWidth="850" pageHeight="1100" math="0" shadow="0">
      <root>
        <mxCell id="0" />
        <mxCell id="1" style="" parent="0" />
        <mxCell id="y40O9kskci-mPfOJpP8v-25" value="rLambdaGlueS3Bucket" style="sketch=0;outlineConnect=0;fontColor=#232F3E;gradientColor=none;fillColor=#7AA116;strokeColor=none;dashed=0;verticalLabelPosition=bottom;verticalAlign=top;align=center;html=1;fontSize=12;fontStyle=0;aspect=fixed;pointerEvents=1;shape=mxgraph.aws4.bucket_with_objects;" parent="1" vertex="1">
          <mxGeometry x="523" y="-2119" width="75" height="78" as="geometry" />
        </mxCell>
        <mxCell id="y40O9kskci-mPfOJpP8v-39" value="rLandingBucketPolicy" style="sketch=0;outlineConnect=0;fontColor=#232F3E;gradientColor=none;fillColor=#DD344C;strokeColor=none;dashed=0;verticalLabelPosition=bottom;verticalAlign=top;align=center;html=1;fontSize=12;fontStyle=0;aspect=fixed;pointerEvents=1;shape=mxgraph.aws4.permissions;" parent="1" vertex="1">
          <mxGeometry x="-520" y="-1666.5" width="62" height="78" as="geometry" />
        </mxCell>
        <mxCell id="y40O9kskci-mPfOJpP8v-40" value="rGlueServiceRole" style="sketch=0;outlineConnect=0;fontColor=#232F3E;gradientColor=none;fillColor=#DD344C;strokeColor=none;dashed=0;verticalLabelPosition=bottom;verticalAlign=top;align=center;html=1;fontSize=12;fontStyle=0;aspect=fixed;pointerEvents=1;shape=mxgraph.aws4.role;" parent="1" vertex="1">
          <mxGeometry x="-50" y="-1905.5" width="78" height="44" as="geometry" />
        </mxCell>
        <mxCell id="y40O9kskci-mPfOJpP8v-44" value="rLambdaExecutionRole" style="sketch=0;outlineConnect=0;fontColor=#232F3E;gradientColor=none;fillColor=#DD344C;strokeColor=none;dashed=0;verticalLabelPosition=bottom;verticalAlign=top;align=center;html=1;fontSize=12;fontStyle=0;aspect=fixed;pointerEvents=1;shape=mxgraph.aws4.role;" parent="1" vertex="1">
          <mxGeometry x="-50" y="-1805.5" width="78" height="44" as="geometry" />
        </mxCell>
        <mxCell id="y40O9kskci-mPfOJpP8v-45" value="rLambdaInvokePermission" style="sketch=0;outlineConnect=0;fontColor=#232F3E;gradientColor=none;fillColor=#DD344C;strokeColor=none;dashed=0;verticalLabelPosition=bottom;verticalAlign=top;align=center;html=1;fontSize=12;fontStyle=0;aspect=fixed;pointerEvents=1;shape=mxgraph.aws4.permissions;" parent="1" vertex="1">
          <mxGeometry x="-520" y="-1780.5" width="62" height="78" as="geometry" />
        </mxCell>
        <mxCell id="y40O9kskci-mPfOJpP8v-46" value="LambdaJobInvokePermission" style="sketch=0;outlineConnect=0;fontColor=#232F3E;gradientColor=none;fillColor=#DD344C;strokeColor=none;dashed=0;verticalLabelPosition=bottom;verticalAlign=top;align=center;html=1;fontSize=12;fontStyle=0;aspect=fixed;pointerEvents=1;shape=mxgraph.aws4.permissions;" parent="1" vertex="1">
          <mxGeometry x="-520" y="-1896.5" width="62" height="78" as="geometry" />
        </mxCell>
        <mxCell id="y40O9kskci-mPfOJpP8v-55" value="rEventBridgeRole" style="sketch=0;outlineConnect=0;fontColor=#232F3E;gradientColor=none;fillColor=#DD344C;strokeColor=none;dashed=0;verticalLabelPosition=bottom;verticalAlign=top;align=center;html=1;fontSize=12;fontStyle=0;aspect=fixed;pointerEvents=1;shape=mxgraph.aws4.role;" parent="1" vertex="1">
          <mxGeometry x="-50" y="-1705.5" width="78" height="44" as="geometry" />
        </mxCell>
        <mxCell id="y40O9kskci-mPfOJpP8v-57" value="rMonitorLambdaRole" style="sketch=0;outlineConnect=0;fontColor=#232F3E;gradientColor=none;fillColor=#DD344C;strokeColor=none;dashed=0;verticalLabelPosition=bottom;verticalAlign=top;align=center;html=1;fontSize=12;fontStyle=0;aspect=fixed;pointerEvents=1;shape=mxgraph.aws4.role;" parent="1" vertex="1">
          <mxGeometry x="-50" y="-1607.5" width="78" height="44" as="geometry" />
        </mxCell>
        <mxCell id="y40O9kskci-mPfOJpP8v-58" value="rPermissionForSNS" style="sketch=0;outlineConnect=0;fontColor=#232F3E;gradientColor=none;fillColor=#DD344C;strokeColor=none;dashed=0;verticalLabelPosition=bottom;verticalAlign=top;align=center;html=1;fontSize=12;fontStyle=0;aspect=fixed;pointerEvents=1;shape=mxgraph.aws4.permissions;" parent="1" vertex="1">
          <mxGeometry x="-520" y="-1536.5" width="62" height="78" as="geometry" />
        </mxCell>
        <mxCell id="y40O9kskci-mPfOJpP8v-66" value="rMonitorTopicPolicy" style="sketch=0;outlineConnect=0;fontColor=#232F3E;gradientColor=none;fillColor=#DD344C;strokeColor=none;dashed=0;verticalLabelPosition=bottom;verticalAlign=top;align=center;html=1;fontSize=12;fontStyle=0;aspect=fixed;pointerEvents=1;shape=mxgraph.aws4.permissions;" parent="1" vertex="1">
          <mxGeometry x="-337" y="-1883.5" width="62" height="78" as="geometry" />
        </mxCell>
        <mxCell id="CAdFPH2BEOfQs7NJBg0e-2" value="rLambdaCrawlerFunction" style="sketch=0;outlineConnect=0;fontColor=#232F3E;gradientColor=none;fillColor=#ED7100;strokeColor=none;dashed=0;verticalLabelPosition=bottom;verticalAlign=top;align=center;html=1;fontSize=12;fontStyle=0;aspect=fixed;pointerEvents=1;shape=mxgraph.aws4.lambda_function;" vertex="1" parent="1">
          <mxGeometry x="688" y="-1964" width="48" height="48" as="geometry" />
        </mxCell>
        <mxCell id="CAdFPH2BEOfQs7NJBg0e-3" value="rGlueCrawler" style="sketch=0;outlineConnect=0;fontColor=#232F3E;gradientColor=none;fillColor=#8C4FFF;strokeColor=none;dashed=0;verticalLabelPosition=bottom;verticalAlign=top;align=center;html=1;fontSize=12;fontStyle=0;aspect=fixed;pointerEvents=1;shape=mxgraph.aws4.glue_crawlers;" vertex="1" parent="1">
          <mxGeometry x="520" y="-1859" width="78" height="78" as="geometry" />
        </mxCell>
        <mxCell id="CAdFPH2BEOfQs7NJBg0e-4" value="rGlueJob" style="sketch=0;points=[[0,0,0],[0.25,0,0],[0.5,0,0],[0.75,0,0],[1,0,0],[0,1,0],[0.25,1,0],[0.5,1,0],[0.75,1,0],[1,1,0],[0,0.25,0],[0,0.5,0],[0,0.75,0],[1,0.25,0],[1,0.5,0],[1,0.75,0]];outlineConnect=0;fontColor=#232F3E;fillColor=#8C4FFF;strokeColor=#ffffff;dashed=0;verticalLabelPosition=bottom;verticalAlign=top;align=center;html=1;fontSize=12;fontStyle=0;aspect=fixed;shape=mxgraph.aws4.resourceIcon;resIcon=mxgraph.aws4.glue;" vertex="1" parent="1">
          <mxGeometry x="673" y="-1859" width="78" height="78" as="geometry" />
        </mxCell>
        <mxCell id="CAdFPH2BEOfQs7NJBg0e-5" value="rMonitorEventSubscriber" style="sketch=0;outlineConnect=0;fontColor=#232F3E;gradientColor=none;fillColor=#ED7100;strokeColor=none;dashed=0;verticalLabelPosition=bottom;verticalAlign=top;align=center;html=1;fontSize=12;fontStyle=0;aspect=fixed;pointerEvents=1;shape=mxgraph.aws4.lambda_function;" vertex="1" parent="1">
          <mxGeometry x="858" y="-1969" width="48" height="48" as="geometry" />
        </mxCell>
        <mxCell id="CAdFPH2BEOfQs7NJBg0e-6" value="rLambdaJobFunction" style="sketch=0;outlineConnect=0;fontColor=#232F3E;gradientColor=none;fillColor=#ED7100;strokeColor=none;dashed=0;verticalLabelPosition=bottom;verticalAlign=top;align=center;html=1;fontSize=12;fontStyle=0;aspect=fixed;pointerEvents=1;shape=mxgraph.aws4.lambda_function;" vertex="1" parent="1">
          <mxGeometry x="539.5" y="-1969" width="48" height="48" as="geometry" />
        </mxCell>
        <mxCell id="CAdFPH2BEOfQs7NJBg0e-18" value="rGlueDatabaseStateChangeEventRule" style="sketch=0;outlineConnect=0;fontColor=#232F3E;gradientColor=none;fillColor=#E7157B;strokeColor=none;dashed=0;verticalLabelPosition=bottom;verticalAlign=top;align=center;html=1;fontSize=12;fontStyle=0;aspect=fixed;pointerEvents=1;shape=mxgraph.aws4.rule_3;" vertex="1" parent="1">
          <mxGeometry x="-184" y="-2165.5" width="78" height="68" as="geometry" />
        </mxCell>
        <mxCell id="CAdFPH2BEOfQs7NJBg0e-21" value="rMonitorSecret" style="sketch=0;outlineConnect=0;fontColor=#232F3E;gradientColor=none;fillColor=#DD344C;strokeColor=none;dashed=0;verticalLabelPosition=bottom;verticalAlign=top;align=center;html=1;fontSize=12;fontStyle=0;aspect=fixed;pointerEvents=1;shape=mxgraph.aws4.addon;" vertex="1" parent="1">
          <mxGeometry x="-50" y="-1498.5" width="78" height="40" as="geometry" />
        </mxCell>
        <mxCell id="CAdFPH2BEOfQs7NJBg0e-24" value="Code Source S3 Bucket Group" style="fillColor=none;strokeColor=#5A6C86;dashed=1;verticalAlign=top;fontStyle=0;fontColor=#5A6C86;whiteSpace=wrap;html=1;" vertex="1" parent="1">
          <mxGeometry x="440" y="-2171" width="560" height="470" as="geometry" />
        </mxCell>
        <mxCell id="CAdFPH2BEOfQs7NJBg0e-66" value="" style="group" vertex="1" connectable="0" parent="1">
          <mxGeometry x="-70" y="-572" width="1740" height="992" as="geometry" />
        </mxCell>
        <mxCell id="y40O9kskci-mPfOJpP8v-79" value="ETL" style="fillColor=none;strokeColor=#8C4FFF;dashed=1;verticalAlign=top;fontStyle=0;fontColor=#5A6C86;whiteSpace=wrap;html=1;" parent="CAdFPH2BEOfQs7NJBg0e-66" vertex="1">
          <mxGeometry x="50" y="42" width="950" height="840" as="geometry" />
        </mxCell>
        <mxCell id="y40O9kskci-mPfOJpP8v-33" style="edgeStyle=orthogonalEdgeStyle;rounded=0;orthogonalLoop=1;jettySize=auto;html=1;entryX=0.5;entryY=0;entryDx=0;entryDy=0;entryPerimeter=0;dashed=1;" parent="CAdFPH2BEOfQs7NJBg0e-66" source="y40O9kskci-mPfOJpP8v-26" target="y40O9kskci-mPfOJpP8v-7" edge="1">
          <mxGeometry relative="1" as="geometry">
            <Array as="points">
              <mxPoint x="370" y="331" />
              <mxPoint x="370" y="472" />
              <mxPoint x="639" y="472" />
            </Array>
          </mxGeometry>
        </mxCell>
        <mxCell id="y40O9kskci-mPfOJpP8v-38" value="Retrieve Data Objects" style="edgeLabel;html=1;align=center;verticalAlign=middle;resizable=0;points=[];" parent="y40O9kskci-mPfOJpP8v-33" vertex="1" connectable="0">
          <mxGeometry x="0.7305" y="-2" relative="1" as="geometry">
            <mxPoint y="-15" as="offset" />
          </mxGeometry>
        </mxCell>
        <mxCell id="y40O9kskci-mPfOJpP8v-84" value="Monitoring" style="fillColor=none;strokeColor=#5A6C86;dashed=1;verticalAlign=top;fontStyle=0;fontColor=#5A6C86;whiteSpace=wrap;html=1;" parent="CAdFPH2BEOfQs7NJBg0e-66" vertex="1">
          <mxGeometry x="1020" y="42" width="660" height="840" as="geometry" />
        </mxCell>
        <mxCell id="y40O9kskci-mPfOJpP8v-10" style="edgeStyle=orthogonalEdgeStyle;rounded=0;orthogonalLoop=1;jettySize=auto;html=1;" parent="CAdFPH2BEOfQs7NJBg0e-66" source="y40O9kskci-mPfOJpP8v-26" target="y40O9kskci-mPfOJpP8v-8" edge="1">
          <mxGeometry relative="1" as="geometry" />
        </mxCell>
        <mxCell id="y40O9kskci-mPfOJpP8v-11" value="S3 Create Event&lt;br&gt;Notification" style="edgeLabel;html=1;align=center;verticalAlign=middle;resizable=0;points=[];" parent="y40O9kskci-mPfOJpP8v-10" vertex="1" connectable="0">
          <mxGeometry x="0.1003" y="2" relative="1" as="geometry">
            <mxPoint x="-5" as="offset" />
          </mxGeometry>
        </mxCell>
        <mxCell id="y40O9kskci-mPfOJpP8v-5" value="rProcessedBucket" style="sketch=0;outlineConnect=0;fontColor=#232F3E;gradientColor=none;fillColor=#7AA116;strokeColor=none;dashed=0;verticalLabelPosition=bottom;verticalAlign=top;align=center;html=1;fontSize=12;fontStyle=0;aspect=fixed;pointerEvents=1;shape=mxgraph.aws4.bucket;" parent="CAdFPH2BEOfQs7NJBg0e-66" vertex="1">
          <mxGeometry x="840" y="702" width="75" height="78" as="geometry" />
        </mxCell>
        <mxCell id="y40O9kskci-mPfOJpP8v-15" style="edgeStyle=orthogonalEdgeStyle;rounded=0;orthogonalLoop=1;jettySize=auto;html=1;startArrow=classic;startFill=1;endArrow=none;endFill=0;" parent="CAdFPH2BEOfQs7NJBg0e-66" source="y40O9kskci-mPfOJpP8v-6" target="y40O9kskci-mPfOJpP8v-26" edge="1">
          <mxGeometry relative="1" as="geometry" />
        </mxCell>
        <mxCell id="y40O9kskci-mPfOJpP8v-28" value="Data Crawling" style="edgeLabel;html=1;align=center;verticalAlign=middle;resizable=0;points=[];" parent="y40O9kskci-mPfOJpP8v-15" vertex="1" connectable="0">
          <mxGeometry x="-0.6515" y="-3" relative="1" as="geometry">
            <mxPoint x="-3" y="-27" as="offset" />
          </mxGeometry>
        </mxCell>
        <mxCell id="y40O9kskci-mPfOJpP8v-17" style="edgeStyle=orthogonalEdgeStyle;rounded=0;orthogonalLoop=1;jettySize=auto;html=1;" parent="CAdFPH2BEOfQs7NJBg0e-66" source="y40O9kskci-mPfOJpP8v-6" target="y40O9kskci-mPfOJpP8v-16" edge="1">
          <mxGeometry relative="1" as="geometry" />
        </mxCell>
        <mxCell id="y40O9kskci-mPfOJpP8v-18" value="Create Database/Table" style="edgeLabel;html=1;align=center;verticalAlign=middle;resizable=0;points=[];" parent="y40O9kskci-mPfOJpP8v-17" vertex="1" connectable="0">
          <mxGeometry x="-0.1421" relative="1" as="geometry">
            <mxPoint x="-8" as="offset" />
          </mxGeometry>
        </mxCell>
        <mxCell id="y40O9kskci-mPfOJpP8v-50" style="edgeStyle=orthogonalEdgeStyle;rounded=0;orthogonalLoop=1;jettySize=auto;html=1;dashed=1;" parent="CAdFPH2BEOfQs7NJBg0e-66" source="y40O9kskci-mPfOJpP8v-6" target="y40O9kskci-mPfOJpP8v-48" edge="1">
          <mxGeometry relative="1" as="geometry">
            <Array as="points">
              <mxPoint x="465" y="642" />
              <mxPoint x="899" y="642" />
            </Array>
          </mxGeometry>
        </mxCell>
        <mxCell id="y40O9kskci-mPfOJpP8v-51" value="Crawler Logs Group" style="edgeLabel;html=1;align=center;verticalAlign=middle;resizable=0;points=[];" parent="y40O9kskci-mPfOJpP8v-50" vertex="1" connectable="0">
          <mxGeometry x="-0.3937" y="3" relative="1" as="geometry">
            <mxPoint x="-8" y="1" as="offset" />
          </mxGeometry>
        </mxCell>
        <mxCell id="y40O9kskci-mPfOJpP8v-6" value="rGlueCrawler" style="sketch=0;outlineConnect=0;fontColor=#232F3E;gradientColor=none;fillColor=#8C4FFF;strokeColor=none;dashed=0;verticalLabelPosition=bottom;verticalAlign=top;align=center;html=1;fontSize=12;fontStyle=0;aspect=fixed;pointerEvents=1;shape=mxgraph.aws4.glue_crawlers;" parent="CAdFPH2BEOfQs7NJBg0e-66" vertex="1">
          <mxGeometry x="426" y="502" width="78" height="78" as="geometry" />
        </mxCell>
        <mxCell id="y40O9kskci-mPfOJpP8v-31" style="edgeStyle=orthogonalEdgeStyle;rounded=0;orthogonalLoop=1;jettySize=auto;html=1;" parent="CAdFPH2BEOfQs7NJBg0e-66" source="y40O9kskci-mPfOJpP8v-7" target="y40O9kskci-mPfOJpP8v-5" edge="1">
          <mxGeometry relative="1" as="geometry" />
        </mxCell>
        <mxCell id="y40O9kskci-mPfOJpP8v-32" value="Text" style="edgeLabel;html=1;align=center;verticalAlign=middle;resizable=0;points=[];" parent="y40O9kskci-mPfOJpP8v-31" vertex="1" connectable="0">
          <mxGeometry x="-0.1213" y="-2" relative="1" as="geometry">
            <mxPoint as="offset" />
          </mxGeometry>
        </mxCell>
        <mxCell id="y40O9kskci-mPfOJpP8v-36" value="Processed &lt;br&gt;Data" style="edgeLabel;html=1;align=center;verticalAlign=middle;resizable=0;points=[];" parent="y40O9kskci-mPfOJpP8v-31" vertex="1" connectable="0">
          <mxGeometry x="-0.1061" y="-2" relative="1" as="geometry">
            <mxPoint as="offset" />
          </mxGeometry>
        </mxCell>
        <mxCell id="y40O9kskci-mPfOJpP8v-49" style="edgeStyle=orthogonalEdgeStyle;rounded=0;orthogonalLoop=1;jettySize=auto;html=1;dashed=1;" parent="CAdFPH2BEOfQs7NJBg0e-66" source="y40O9kskci-mPfOJpP8v-7" target="y40O9kskci-mPfOJpP8v-48" edge="1">
          <mxGeometry relative="1" as="geometry">
            <Array as="points">
              <mxPoint x="639" y="662" />
              <mxPoint x="820" y="662" />
              <mxPoint x="820" y="531" />
            </Array>
          </mxGeometry>
        </mxCell>
        <mxCell id="y40O9kskci-mPfOJpP8v-52" value="Job Logs Group" style="edgeLabel;html=1;align=center;verticalAlign=middle;resizable=0;points=[];" parent="y40O9kskci-mPfOJpP8v-49" vertex="1" connectable="0">
          <mxGeometry x="-0.264" y="-4" relative="1" as="geometry">
            <mxPoint x="1" y="-4" as="offset" />
          </mxGeometry>
        </mxCell>
        <mxCell id="y40O9kskci-mPfOJpP8v-7" value="rGlueJob" style="sketch=0;points=[[0,0,0],[0.25,0,0],[0.5,0,0],[0.75,0,0],[1,0,0],[0,1,0],[0.25,1,0],[0.5,1,0],[0.75,1,0],[1,1,0],[0,0.25,0],[0,0.5,0],[0,0.75,0],[1,0.25,0],[1,0.5,0],[1,0.75,0]];outlineConnect=0;fontColor=#232F3E;fillColor=#8C4FFF;strokeColor=#ffffff;dashed=0;verticalLabelPosition=bottom;verticalAlign=top;align=center;html=1;fontSize=12;fontStyle=0;aspect=fixed;shape=mxgraph.aws4.resourceIcon;resIcon=mxgraph.aws4.glue;" parent="CAdFPH2BEOfQs7NJBg0e-66" vertex="1">
          <mxGeometry x="600" y="702" width="78" height="78" as="geometry" />
        </mxCell>
        <mxCell id="y40O9kskci-mPfOJpP8v-12" style="edgeStyle=orthogonalEdgeStyle;rounded=0;orthogonalLoop=1;jettySize=auto;html=1;" parent="CAdFPH2BEOfQs7NJBg0e-66" source="y40O9kskci-mPfOJpP8v-8" target="y40O9kskci-mPfOJpP8v-6" edge="1">
          <mxGeometry relative="1" as="geometry">
            <Array as="points">
              <mxPoint x="714" y="532" />
            </Array>
          </mxGeometry>
        </mxCell>
        <mxCell id="y40O9kskci-mPfOJpP8v-14" value="Lambda Crawler&lt;br&gt;Trigger" style="edgeLabel;html=1;align=center;verticalAlign=middle;resizable=0;points=[];" parent="y40O9kskci-mPfOJpP8v-12" vertex="1" connectable="0">
          <mxGeometry x="0.0949" y="-4" relative="1" as="geometry">
            <mxPoint x="-55" y="4" as="offset" />
          </mxGeometry>
        </mxCell>
        <mxCell id="y40O9kskci-mPfOJpP8v-8" value="rLambdaCrawlerFunction" style="sketch=0;outlineConnect=0;fontColor=#232F3E;gradientColor=none;fillColor=#ED7100;strokeColor=none;dashed=0;verticalLabelPosition=bottom;verticalAlign=top;align=center;html=1;fontSize=12;fontStyle=0;aspect=fixed;pointerEvents=1;shape=mxgraph.aws4.lambda_function;" parent="CAdFPH2BEOfQs7NJBg0e-66" vertex="1">
          <mxGeometry x="690" y="307" width="48" height="48" as="geometry" />
        </mxCell>
        <mxCell id="y40O9kskci-mPfOJpP8v-24" style="edgeStyle=orthogonalEdgeStyle;rounded=0;orthogonalLoop=1;jettySize=auto;html=1;" parent="CAdFPH2BEOfQs7NJBg0e-66" source="y40O9kskci-mPfOJpP8v-9" target="y40O9kskci-mPfOJpP8v-7" edge="1">
          <mxGeometry relative="1" as="geometry" />
        </mxCell>
        <mxCell id="y40O9kskci-mPfOJpP8v-29" value="Run &lt;br&gt;Glue Job" style="edgeLabel;html=1;align=center;verticalAlign=middle;resizable=0;points=[];" parent="y40O9kskci-mPfOJpP8v-24" vertex="1" connectable="0">
          <mxGeometry x="-0.0494" y="3" relative="1" as="geometry">
            <mxPoint as="offset" />
          </mxGeometry>
        </mxCell>
        <mxCell id="y40O9kskci-mPfOJpP8v-9" value="rLambdaJobFunction" style="sketch=0;outlineConnect=0;fontColor=#232F3E;gradientColor=none;fillColor=#ED7100;strokeColor=none;dashed=0;verticalLabelPosition=bottom;verticalAlign=top;align=center;html=1;fontSize=12;fontStyle=0;aspect=fixed;pointerEvents=1;shape=mxgraph.aws4.lambda_function;" parent="CAdFPH2BEOfQs7NJBg0e-66" vertex="1">
          <mxGeometry x="390" y="717" width="48" height="48" as="geometry" />
        </mxCell>
        <mxCell id="y40O9kskci-mPfOJpP8v-20" style="edgeStyle=orthogonalEdgeStyle;rounded=0;orthogonalLoop=1;jettySize=auto;html=1;" parent="CAdFPH2BEOfQs7NJBg0e-66" source="y40O9kskci-mPfOJpP8v-16" target="y40O9kskci-mPfOJpP8v-19" edge="1">
          <mxGeometry relative="1" as="geometry" />
        </mxCell>
        <mxCell id="y40O9kskci-mPfOJpP8v-21" value="Glue Data Catalog &lt;br&gt;Database State Change" style="edgeLabel;html=1;align=center;verticalAlign=middle;resizable=0;points=[];" parent="y40O9kskci-mPfOJpP8v-20" vertex="1" connectable="0">
          <mxGeometry x="-0.2455" y="4" relative="1" as="geometry">
            <mxPoint y="24" as="offset" />
          </mxGeometry>
        </mxCell>
        <mxCell id="y40O9kskci-mPfOJpP8v-16" value="Glue Data Catalog" style="sketch=0;outlineConnect=0;fontColor=#232F3E;gradientColor=none;fillColor=#8C4FFF;strokeColor=none;dashed=0;verticalLabelPosition=bottom;verticalAlign=top;align=center;html=1;fontSize=12;fontStyle=0;aspect=fixed;pointerEvents=1;shape=mxgraph.aws4.glue_data_catalog;" parent="CAdFPH2BEOfQs7NJBg0e-66" vertex="1">
          <mxGeometry x="150" y="502" width="72" height="78" as="geometry" />
        </mxCell>
        <mxCell id="y40O9kskci-mPfOJpP8v-22" style="edgeStyle=orthogonalEdgeStyle;rounded=0;orthogonalLoop=1;jettySize=auto;html=1;" parent="CAdFPH2BEOfQs7NJBg0e-66" source="y40O9kskci-mPfOJpP8v-19" target="y40O9kskci-mPfOJpP8v-9" edge="1">
          <mxGeometry relative="1" as="geometry" />
        </mxCell>
        <mxCell id="y40O9kskci-mPfOJpP8v-23" value="Lambda Job &lt;br&gt;Trigger" style="edgeLabel;html=1;align=center;verticalAlign=middle;resizable=0;points=[];" parent="y40O9kskci-mPfOJpP8v-22" vertex="1" connectable="0">
          <mxGeometry x="-0.1515" y="-4" relative="1" as="geometry">
            <mxPoint as="offset" />
          </mxGeometry>
        </mxCell>
        <mxCell id="y40O9kskci-mPfOJpP8v-19" value="rGlueDatabaseStateChangeEventRule" style="sketch=0;outlineConnect=0;fontColor=#232F3E;gradientColor=none;fillColor=#E7157B;strokeColor=none;dashed=0;verticalLabelPosition=bottom;verticalAlign=top;align=center;html=1;fontSize=12;fontStyle=0;aspect=fixed;pointerEvents=1;shape=mxgraph.aws4.rule_3;" parent="CAdFPH2BEOfQs7NJBg0e-66" vertex="1">
          <mxGeometry x="147" y="707" width="78" height="68" as="geometry" />
        </mxCell>
        <mxCell id="y40O9kskci-mPfOJpP8v-26" value="rLandingBucket" style="sketch=0;outlineConnect=0;fontColor=#232F3E;gradientColor=none;fillColor=#7AA116;strokeColor=none;dashed=0;verticalLabelPosition=bottom;verticalAlign=top;align=center;html=1;fontSize=12;fontStyle=0;aspect=fixed;pointerEvents=1;shape=mxgraph.aws4.bucket_with_objects;" parent="CAdFPH2BEOfQs7NJBg0e-66" vertex="1">
          <mxGeometry x="427.5" y="292" width="75" height="78" as="geometry" />
        </mxCell>
        <mxCell id="y40O9kskci-mPfOJpP8v-34" style="edgeStyle=orthogonalEdgeStyle;rounded=0;orthogonalLoop=1;jettySize=auto;html=1;entryX=0.5;entryY=1;entryDx=0;entryDy=0;entryPerimeter=0;dashed=1;" parent="CAdFPH2BEOfQs7NJBg0e-66" source="y40O9kskci-mPfOJpP8v-16" target="y40O9kskci-mPfOJpP8v-7" edge="1">
          <mxGeometry relative="1" as="geometry">
            <Array as="points">
              <mxPoint x="70" y="541" />
              <mxPoint x="70" y="852" />
              <mxPoint x="639" y="852" />
            </Array>
          </mxGeometry>
        </mxCell>
        <mxCell id="y40O9kskci-mPfOJpP8v-37" value="Read Table Schema" style="edgeLabel;html=1;align=center;verticalAlign=middle;resizable=0;points=[];" parent="y40O9kskci-mPfOJpP8v-34" vertex="1" connectable="0">
          <mxGeometry x="-0.0285" y="1" relative="1" as="geometry">
            <mxPoint x="180" as="offset" />
          </mxGeometry>
        </mxCell>
        <mxCell id="y40O9kskci-mPfOJpP8v-42" style="edgeStyle=orthogonalEdgeStyle;rounded=0;orthogonalLoop=1;jettySize=auto;html=1;" parent="CAdFPH2BEOfQs7NJBg0e-66" source="y40O9kskci-mPfOJpP8v-41" target="y40O9kskci-mPfOJpP8v-26" edge="1">
          <mxGeometry relative="1" as="geometry" />
        </mxCell>
        <mxCell id="y40O9kskci-mPfOJpP8v-43" value="Put Data" style="edgeLabel;html=1;align=center;verticalAlign=middle;resizable=0;points=[];" parent="y40O9kskci-mPfOJpP8v-42" vertex="1" connectable="0">
          <mxGeometry x="-0.1883" y="-2" relative="1" as="geometry">
            <mxPoint x="2" y="12" as="offset" />
          </mxGeometry>
        </mxCell>
        <mxCell id="y40O9kskci-mPfOJpP8v-41" value="Data Object" style="sketch=0;outlineConnect=0;fontColor=#232F3E;gradientColor=none;fillColor=#232F3D;strokeColor=none;dashed=0;verticalLabelPosition=bottom;verticalAlign=top;align=center;html=1;fontSize=12;fontStyle=0;aspect=fixed;pointerEvents=1;shape=mxgraph.aws4.documents;" parent="CAdFPH2BEOfQs7NJBg0e-66" vertex="1">
          <mxGeometry x="433" y="92" width="64" height="78" as="geometry" />
        </mxCell>
        <mxCell id="y40O9kskci-mPfOJpP8v-54" style="edgeStyle=orthogonalEdgeStyle;rounded=0;orthogonalLoop=1;jettySize=auto;html=1;" parent="CAdFPH2BEOfQs7NJBg0e-66" source="y40O9kskci-mPfOJpP8v-48" target="y40O9kskci-mPfOJpP8v-53" edge="1">
          <mxGeometry relative="1" as="geometry" />
        </mxCell>
        <mxCell id="y40O9kskci-mPfOJpP8v-81" value="Route Logs to &lt;br&gt;EventBridge Rule" style="edgeLabel;html=1;align=center;verticalAlign=middle;resizable=0;points=[];" parent="y40O9kskci-mPfOJpP8v-54" vertex="1" connectable="0">
          <mxGeometry x="-0.1376" y="1" relative="1" as="geometry">
            <mxPoint as="offset" />
          </mxGeometry>
        </mxCell>
        <mxCell id="y40O9kskci-mPfOJpP8v-48" value="GlueLogsTarget" style="sketch=0;outlineConnect=0;fontColor=#232F3E;gradientColor=none;fillColor=#E7157B;strokeColor=none;dashed=0;verticalLabelPosition=bottom;verticalAlign=top;align=center;html=1;fontSize=12;fontStyle=0;aspect=fixed;pointerEvents=1;shape=mxgraph.aws4.cloudwatch_logs;" parent="CAdFPH2BEOfQs7NJBg0e-66" vertex="1">
          <mxGeometry x="860" y="502" width="78" height="58" as="geometry" />
        </mxCell>
        <mxCell id="y40O9kskci-mPfOJpP8v-60" style="edgeStyle=orthogonalEdgeStyle;rounded=0;orthogonalLoop=1;jettySize=auto;html=1;" parent="CAdFPH2BEOfQs7NJBg0e-66" source="y40O9kskci-mPfOJpP8v-53" target="y40O9kskci-mPfOJpP8v-64" edge="1">
          <mxGeometry relative="1" as="geometry" />
        </mxCell>
        <mxCell id="y40O9kskci-mPfOJpP8v-82" value="Trigger SNS &lt;br&gt;Notification" style="edgeLabel;html=1;align=center;verticalAlign=middle;resizable=0;points=[];" parent="y40O9kskci-mPfOJpP8v-60" vertex="1" connectable="0">
          <mxGeometry x="0.0294" y="1" relative="1" as="geometry">
            <mxPoint as="offset" />
          </mxGeometry>
        </mxCell>
        <mxCell id="y40O9kskci-mPfOJpP8v-53" value="rEventBridgeRule" style="sketch=0;outlineConnect=0;fontColor=#232F3E;gradientColor=none;fillColor=#E7157B;strokeColor=none;dashed=0;verticalLabelPosition=bottom;verticalAlign=top;align=center;html=1;fontSize=12;fontStyle=0;aspect=fixed;pointerEvents=1;shape=mxgraph.aws4.rule_3;" parent="CAdFPH2BEOfQs7NJBg0e-66" vertex="1">
          <mxGeometry x="1130" y="497" width="78" height="68" as="geometry" />
        </mxCell>
        <mxCell id="y40O9kskci-mPfOJpP8v-71" style="edgeStyle=orthogonalEdgeStyle;rounded=0;orthogonalLoop=1;jettySize=auto;html=1;" parent="CAdFPH2BEOfQs7NJBg0e-66" source="y40O9kskci-mPfOJpP8v-56" target="y40O9kskci-mPfOJpP8v-61" edge="1">
          <mxGeometry relative="1" as="geometry" />
        </mxCell>
        <mxCell id="y40O9kskci-mPfOJpP8v-72" value="Put Logs" style="edgeLabel;html=1;align=center;verticalAlign=middle;resizable=0;points=[];" parent="y40O9kskci-mPfOJpP8v-71" vertex="1" connectable="0">
          <mxGeometry x="-0.1916" relative="1" as="geometry">
            <mxPoint x="1" as="offset" />
          </mxGeometry>
        </mxCell>
        <mxCell id="y40O9kskci-mPfOJpP8v-75" style="edgeStyle=orthogonalEdgeStyle;rounded=0;orthogonalLoop=1;jettySize=auto;html=1;" parent="CAdFPH2BEOfQs7NJBg0e-66" source="y40O9kskci-mPfOJpP8v-56" target="y40O9kskci-mPfOJpP8v-74" edge="1">
          <mxGeometry relative="1" as="geometry" />
        </mxCell>
        <mxCell id="y40O9kskci-mPfOJpP8v-76" value="Send Alert" style="edgeLabel;html=1;align=center;verticalAlign=middle;resizable=0;points=[];" parent="y40O9kskci-mPfOJpP8v-75" vertex="1" connectable="0">
          <mxGeometry x="-0.0797" y="1" relative="1" as="geometry">
            <mxPoint x="11" y="1" as="offset" />
          </mxGeometry>
        </mxCell>
        <mxCell id="y40O9kskci-mPfOJpP8v-56" value="rMonitorEventSubscriber" style="sketch=0;outlineConnect=0;fontColor=#232F3E;gradientColor=none;fillColor=#ED7100;strokeColor=none;dashed=0;verticalLabelPosition=bottom;verticalAlign=top;align=center;html=1;fontSize=12;fontStyle=0;aspect=fixed;pointerEvents=1;shape=mxgraph.aws4.lambda_function;" parent="CAdFPH2BEOfQs7NJBg0e-66" vertex="1">
          <mxGeometry x="1365" y="507" width="48" height="48" as="geometry" />
        </mxCell>
        <mxCell id="y40O9kskci-mPfOJpP8v-62" style="edgeStyle=orthogonalEdgeStyle;rounded=0;orthogonalLoop=1;jettySize=auto;html=1;" parent="CAdFPH2BEOfQs7NJBg0e-66" source="y40O9kskci-mPfOJpP8v-59" target="y40O9kskci-mPfOJpP8v-56" edge="1">
          <mxGeometry relative="1" as="geometry" />
        </mxCell>
        <mxCell id="y40O9kskci-mPfOJpP8v-73" value="Publish Message&amp;nbsp;&lt;br&gt;and Trigger Lambda" style="edgeLabel;html=1;align=center;verticalAlign=middle;resizable=0;points=[];" parent="y40O9kskci-mPfOJpP8v-62" vertex="1" connectable="0">
          <mxGeometry x="0.0407" relative="1" as="geometry">
            <mxPoint x="1" y="16" as="offset" />
          </mxGeometry>
        </mxCell>
        <mxCell id="y40O9kskci-mPfOJpP8v-59" value="rMonitorTopic" style="sketch=0;outlineConnect=0;fontColor=#232F3E;gradientColor=none;fillColor=#E7157B;strokeColor=none;dashed=0;verticalLabelPosition=bottom;verticalAlign=top;align=center;html=1;fontSize=12;fontStyle=0;aspect=fixed;pointerEvents=1;shape=mxgraph.aws4.topic;" parent="CAdFPH2BEOfQs7NJBg0e-66" vertex="1">
          <mxGeometry x="1350" y="702.5" width="78" height="67" as="geometry" />
        </mxCell>
        <mxCell id="y40O9kskci-mPfOJpP8v-70" style="edgeStyle=orthogonalEdgeStyle;rounded=0;orthogonalLoop=1;jettySize=auto;html=1;" parent="CAdFPH2BEOfQs7NJBg0e-66" source="y40O9kskci-mPfOJpP8v-61" target="y40O9kskci-mPfOJpP8v-68" edge="1">
          <mxGeometry relative="1" as="geometry" />
        </mxCell>
        <mxCell id="y40O9kskci-mPfOJpP8v-78" value="Query Logs" style="edgeLabel;html=1;align=center;verticalAlign=middle;resizable=0;points=[];" parent="y40O9kskci-mPfOJpP8v-70" vertex="1" connectable="0">
          <mxGeometry x="-0.0927" y="1" relative="1" as="geometry">
            <mxPoint as="offset" />
          </mxGeometry>
        </mxCell>
        <mxCell id="y40O9kskci-mPfOJpP8v-61" value="rDataLakeMonitoringBucket" style="sketch=0;outlineConnect=0;fontColor=#232F3E;gradientColor=none;fillColor=#7AA116;strokeColor=none;dashed=0;verticalLabelPosition=bottom;verticalAlign=top;align=center;html=1;fontSize=12;fontStyle=0;aspect=fixed;pointerEvents=1;shape=mxgraph.aws4.bucket_with_objects;" parent="CAdFPH2BEOfQs7NJBg0e-66" vertex="1">
          <mxGeometry x="1351.5" y="262" width="75" height="78" as="geometry" />
        </mxCell>
        <mxCell id="y40O9kskci-mPfOJpP8v-65" style="edgeStyle=orthogonalEdgeStyle;rounded=0;orthogonalLoop=1;jettySize=auto;html=1;" parent="CAdFPH2BEOfQs7NJBg0e-66" source="y40O9kskci-mPfOJpP8v-64" target="y40O9kskci-mPfOJpP8v-59" edge="1">
          <mxGeometry relative="1" as="geometry" />
        </mxCell>
        <mxCell id="y40O9kskci-mPfOJpP8v-83" value="Send Message to &lt;br&gt;Monitoring Topic" style="edgeLabel;html=1;align=center;verticalAlign=middle;resizable=0;points=[];" parent="y40O9kskci-mPfOJpP8v-65" vertex="1" connectable="0">
          <mxGeometry x="-0.2289" relative="1" as="geometry">
            <mxPoint x="7" as="offset" />
          </mxGeometry>
        </mxCell>
        <mxCell id="y40O9kskci-mPfOJpP8v-64" value="SNS" style="sketch=0;points=[[0,0,0],[0.25,0,0],[0.5,0,0],[0.75,0,0],[1,0,0],[0,1,0],[0.25,1,0],[0.5,1,0],[0.75,1,0],[1,1,0],[0,0.25,0],[0,0.5,0],[0,0.75,0],[1,0.25,0],[1,0.5,0],[1,0.75,0]];outlineConnect=0;fontColor=#232F3E;fillColor=#E7157B;strokeColor=#ffffff;dashed=0;verticalLabelPosition=bottom;verticalAlign=top;align=center;html=1;fontSize=12;fontStyle=0;aspect=fixed;shape=mxgraph.aws4.resourceIcon;resIcon=mxgraph.aws4.sns;" parent="CAdFPH2BEOfQs7NJBg0e-66" vertex="1">
          <mxGeometry x="1130" y="697" width="78" height="78" as="geometry" />
        </mxCell>
        <mxCell id="y40O9kskci-mPfOJpP8v-69" style="edgeStyle=orthogonalEdgeStyle;rounded=0;orthogonalLoop=1;jettySize=auto;html=1;dashed=1;" parent="CAdFPH2BEOfQs7NJBg0e-66" source="y40O9kskci-mPfOJpP8v-67" target="y40O9kskci-mPfOJpP8v-68" edge="1">
          <mxGeometry relative="1" as="geometry" />
        </mxCell>
        <mxCell id="y40O9kskci-mPfOJpP8v-77" value="Read Table Schema" style="edgeLabel;html=1;align=center;verticalAlign=middle;resizable=0;points=[];" parent="y40O9kskci-mPfOJpP8v-69" vertex="1" connectable="0">
          <mxGeometry x="0.1098" y="-3" relative="1" as="geometry">
            <mxPoint y="-1" as="offset" />
          </mxGeometry>
        </mxCell>
        <mxCell id="y40O9kskci-mPfOJpP8v-67" value="rMonitorDatabase" style="sketch=0;outlineConnect=0;fontColor=#232F3E;gradientColor=none;fillColor=#8C4FFF;strokeColor=none;dashed=0;verticalLabelPosition=bottom;verticalAlign=top;align=center;html=1;fontSize=12;fontStyle=0;aspect=fixed;pointerEvents=1;shape=mxgraph.aws4.glue_data_catalog;" parent="CAdFPH2BEOfQs7NJBg0e-66" vertex="1">
          <mxGeometry x="1563" y="52" width="72" height="78" as="geometry" />
        </mxCell>
        <mxCell id="y40O9kskci-mPfOJpP8v-68" value="Athena" style="sketch=0;points=[[0,0,0],[0.25,0,0],[0.5,0,0],[0.75,0,0],[1,0,0],[0,1,0],[0.25,1,0],[0.5,1,0],[0.75,1,0],[1,1,0],[0,0.25,0],[0,0.5,0],[0,0.75,0],[1,0.25,0],[1,0.5,0],[1,0.75,0]];outlineConnect=0;fontColor=#232F3E;fillColor=#8C4FFF;strokeColor=#ffffff;dashed=0;verticalLabelPosition=bottom;verticalAlign=top;align=center;html=1;fontSize=12;fontStyle=0;aspect=fixed;shape=mxgraph.aws4.resourceIcon;resIcon=mxgraph.aws4.athena;" parent="CAdFPH2BEOfQs7NJBg0e-66" vertex="1">
          <mxGeometry x="1560" y="262" width="78" height="78" as="geometry" />
        </mxCell>
        <mxCell id="y40O9kskci-mPfOJpP8v-74" value="NotificationChannel" style="sketch=0;pointerEvents=1;shadow=0;dashed=0;html=1;strokeColor=none;fillColor=#DF8C42;labelPosition=center;verticalLabelPosition=bottom;verticalAlign=top;align=center;outlineConnect=0;shape=mxgraph.veeam2.microsoft_teams;aspect=fixed;" parent="CAdFPH2BEOfQs7NJBg0e-66" vertex="1">
          <mxGeometry x="1560" y="492" width="78" height="78" as="geometry" />
        </mxCell>
        <mxCell id="y40O9kskci-mPfOJpP8v-159" value="AWS Cloud" style="points=[[0,0],[0.25,0],[0.5,0],[0.75,0],[1,0],[1,0.25],[1,0.5],[1,0.75],[1,1],[0.75,1],[0.5,1],[0.25,1],[0,1],[0,0.75],[0,0.5],[0,0.25]];outlineConnect=0;gradientColor=none;html=1;whiteSpace=wrap;fontSize=12;fontStyle=0;container=1;pointerEvents=0;collapsible=0;recursiveResize=0;shape=mxgraph.aws4.group;grIcon=mxgraph.aws4.group_aws_cloud_alt;strokeColor=#232F3E;fillColor=none;verticalAlign=top;align=left;spacingLeft=30;fontColor=#232F3E;dashed=0;" parent="CAdFPH2BEOfQs7NJBg0e-66" vertex="1">
          <mxGeometry width="1740" height="992" as="geometry" />
        </mxCell>
        <mxCell id="CAdFPH2BEOfQs7NJBg0e-38" value="" style="sketch=0;outlineConnect=0;fontColor=#232F3E;gradientColor=none;fillColor=#232F3D;strokeColor=none;dashed=0;verticalLabelPosition=bottom;verticalAlign=top;align=center;html=1;fontSize=12;fontStyle=0;aspect=fixed;pointerEvents=1;shape=mxgraph.aws4.email_2;" vertex="1" parent="y40O9kskci-mPfOJpP8v-159">
          <mxGeometry x="1310" y="633" width="27.06" height="17" as="geometry" />
        </mxCell>
        <mxCell id="CAdFPH2BEOfQs7NJBg0e-45" value="3" style="ellipse;whiteSpace=wrap;html=1;fillColor=#007FFF;strokeColor=default;" vertex="1" parent="y40O9kskci-mPfOJpP8v-159">
          <mxGeometry x="678" y="535" width="20" height="20" as="geometry" />
        </mxCell>
        <mxCell id="CAdFPH2BEOfQs7NJBg0e-46" value="4" style="ellipse;whiteSpace=wrap;html=1;fillColor=#007FFF;strokeColor=default;" vertex="1" parent="y40O9kskci-mPfOJpP8v-159">
          <mxGeometry x="320" y="552" width="20" height="20" as="geometry" />
        </mxCell>
        <mxCell id="CAdFPH2BEOfQs7NJBg0e-47" value="5" style="ellipse;whiteSpace=wrap;html=1;fillColor=#007FFF;strokeColor=default;" vertex="1" parent="y40O9kskci-mPfOJpP8v-159">
          <mxGeometry x="110" y="642" width="20" height="20" as="geometry" />
        </mxCell>
        <mxCell id="CAdFPH2BEOfQs7NJBg0e-48" value="6" style="ellipse;whiteSpace=wrap;html=1;fillColor=#007FFF;strokeColor=default;" vertex="1" parent="y40O9kskci-mPfOJpP8v-159">
          <mxGeometry x="320" y="752" width="20" height="20" as="geometry" />
        </mxCell>
        <mxCell id="CAdFPH2BEOfQs7NJBg0e-49" value="7" style="ellipse;whiteSpace=wrap;html=1;fillColor=#007FFF;strokeColor=default;" vertex="1" parent="y40O9kskci-mPfOJpP8v-159">
          <mxGeometry x="540" y="752" width="20" height="20" as="geometry" />
        </mxCell>
        <mxCell id="CAdFPH2BEOfQs7NJBg0e-51" value="8.2" style="ellipse;whiteSpace=wrap;html=1;fillColor=#007FFF;strokeColor=default;fontSize=8;" vertex="1" parent="y40O9kskci-mPfOJpP8v-159">
          <mxGeometry x="610" y="602" width="20" height="20" as="geometry" />
        </mxCell>
        <mxCell id="CAdFPH2BEOfQs7NJBg0e-54" value="8.1" style="ellipse;whiteSpace=wrap;html=1;fillColor=#007FFF;strokeColor=default;fontSize=8;" vertex="1" parent="y40O9kskci-mPfOJpP8v-159">
          <mxGeometry x="360" y="862" width="20" height="20" as="geometry" />
        </mxCell>
        <mxCell id="CAdFPH2BEOfQs7NJBg0e-55" value="4.1" style="ellipse;whiteSpace=wrap;html=1;fillColor=#007FFF;strokeColor=default;fontSize=8;" vertex="1" parent="y40O9kskci-mPfOJpP8v-159">
          <mxGeometry x="550" y="650" width="20" height="20" as="geometry" />
        </mxCell>
        <mxCell id="CAdFPH2BEOfQs7NJBg0e-57" value="9.1" style="ellipse;whiteSpace=wrap;html=1;fillColor=#007FFF;strokeColor=default;fontSize=8;" vertex="1" parent="y40O9kskci-mPfOJpP8v-159">
          <mxGeometry x="750" y="672" width="20" height="20" as="geometry" />
        </mxCell>
        <mxCell id="CAdFPH2BEOfQs7NJBg0e-60" value="12" style="ellipse;whiteSpace=wrap;html=1;fillColor=#007FFF;strokeColor=default;" vertex="1" parent="y40O9kskci-mPfOJpP8v-159">
          <mxGeometry x="1270" y="752" width="20" height="20" as="geometry" />
        </mxCell>
        <mxCell id="CAdFPH2BEOfQs7NJBg0e-62" value="14.2" style="ellipse;whiteSpace=wrap;html=1;fillColor=#007FFF;strokeColor=default;fontSize=8;" vertex="1" parent="y40O9kskci-mPfOJpP8v-159">
          <mxGeometry x="1400" y="462" width="20" height="20" as="geometry" />
        </mxCell>
        <mxCell id="CAdFPH2BEOfQs7NJBg0e-61" value="13" style="ellipse;whiteSpace=wrap;html=1;fillColor=#007FFF;strokeColor=default;" vertex="1" parent="y40O9kskci-mPfOJpP8v-159">
          <mxGeometry x="1400" y="662" width="20" height="20" as="geometry" />
        </mxCell>
        <mxCell id="CAdFPH2BEOfQs7NJBg0e-63" value="&lt;font style=&quot;font-size: 8px;&quot;&gt;14.1&lt;/font&gt;" style="ellipse;whiteSpace=wrap;html=1;fillColor=#007FFF;strokeColor=default;" vertex="1" parent="y40O9kskci-mPfOJpP8v-159">
          <mxGeometry x="1470" y="542" width="20" height="20" as="geometry" />
        </mxCell>
        <mxCell id="CAdFPH2BEOfQs7NJBg0e-65" value="15.1" style="ellipse;whiteSpace=wrap;html=1;fillColor=#007FFF;strokeColor=default;fontSize=8;" vertex="1" parent="y40O9kskci-mPfOJpP8v-159">
          <mxGeometry x="1610" y="212" width="20" height="20" as="geometry" />
        </mxCell>
        <mxCell id="CAdFPH2BEOfQs7NJBg0e-43" value="1" style="ellipse;whiteSpace=wrap;html=1;fillColor=#007FFF;strokeColor=default;" vertex="1" parent="CAdFPH2BEOfQs7NJBg0e-66">
          <mxGeometry x="413" y="222" width="20" height="20" as="geometry" />
        </mxCell>
        <mxCell id="CAdFPH2BEOfQs7NJBg0e-44" value="2" style="ellipse;whiteSpace=wrap;html=1;fillColor=#007FFF;strokeColor=default;" vertex="1" parent="CAdFPH2BEOfQs7NJBg0e-66">
          <mxGeometry x="580" y="350" width="20" height="20" as="geometry" />
        </mxCell>
        <mxCell id="CAdFPH2BEOfQs7NJBg0e-56" value="9" style="ellipse;whiteSpace=wrap;html=1;fillColor=#007FFF;strokeColor=default;" vertex="1" parent="CAdFPH2BEOfQs7NJBg0e-66">
          <mxGeometry x="750" y="762" width="20" height="20" as="geometry" />
        </mxCell>
        <mxCell id="CAdFPH2BEOfQs7NJBg0e-58" value="10" style="ellipse;whiteSpace=wrap;html=1;fillColor=#007FFF;strokeColor=default;" vertex="1" parent="CAdFPH2BEOfQs7NJBg0e-66">
          <mxGeometry x="1030" y="550" width="20" height="20" as="geometry" />
        </mxCell>
        <mxCell id="CAdFPH2BEOfQs7NJBg0e-59" value="11" style="ellipse;whiteSpace=wrap;html=1;fillColor=#007FFF;strokeColor=default;" vertex="1" parent="CAdFPH2BEOfQs7NJBg0e-66">
          <mxGeometry x="1137.5" y="652" width="20" height="20" as="geometry" />
        </mxCell>
        <mxCell id="CAdFPH2BEOfQs7NJBg0e-64" value="15.2" style="ellipse;whiteSpace=wrap;html=1;fillColor=#007FFF;strokeColor=default;fontSize=8;" vertex="1" parent="CAdFPH2BEOfQs7NJBg0e-66">
          <mxGeometry x="1480" y="312" width="20" height="20" as="geometry" />
        </mxCell>
        <mxCell id="CAdFPH2BEOfQs7NJBg0e-67" value="rMonitorSecret" style="sketch=0;outlineConnect=0;fontColor=#232F3E;gradientColor=none;fillColor=#DD344C;strokeColor=none;dashed=0;verticalLabelPosition=bottom;verticalAlign=top;align=center;html=1;fontSize=12;fontStyle=0;aspect=fixed;pointerEvents=1;shape=mxgraph.aws4.addon;" vertex="1" parent="1">
          <mxGeometry x="688" y="-2100" width="78" height="40" as="geometry" />
        </mxCell>
        <mxCell id="CAdFPH2BEOfQs7NJBg0e-82" value="" style="group" vertex="1" connectable="0" parent="1">
          <mxGeometry x="1530" y="-2010" width="1580" height="1210" as="geometry" />
        </mxCell>
        <mxCell id="CAdFPH2BEOfQs7NJBg0e-79" value="" style="group;aspect=fixed;flipH=0;perimeterSpacing=0;rounded=0;spacingTop=0;" vertex="1" connectable="0" parent="CAdFPH2BEOfQs7NJBg0e-82">
          <mxGeometry x="107" y="89" width="1392.93" height="1063" as="geometry" />
        </mxCell>
        <mxCell id="CAdFPH2BEOfQs7NJBg0e-32" value="rMonitorEventSubscriber Permission Configuration Group" style="fillColor=none;strokeColor=#5A6C86;dashed=1;verticalAlign=top;fontStyle=0;fontColor=#5A6C86;whiteSpace=wrap;html=1;" vertex="1" parent="CAdFPH2BEOfQs7NJBg0e-79">
          <mxGeometry x="755.1305183585315" width="601.697624190065" height="160.45283018867923" as="geometry" />
        </mxCell>
        <mxCell id="CAdFPH2BEOfQs7NJBg0e-7" value="rLandingBucket" style="sketch=0;outlineConnect=0;fontColor=#232F3E;gradientColor=none;fillColor=#7AA116;strokeColor=none;dashed=0;verticalLabelPosition=bottom;verticalAlign=top;align=center;html=1;fontSize=12;fontStyle=0;aspect=fixed;pointerEvents=1;shape=mxgraph.aws4.bucket_with_objects;" vertex="1" parent="CAdFPH2BEOfQs7NJBg0e-79">
          <mxGeometry x="112.31688984881212" y="70.19811320754717" width="75.21220302375812" height="78.22069114470843" as="geometry" />
        </mxCell>
        <mxCell id="CAdFPH2BEOfQs7NJBg0e-8" value="rLandingBucketPolicy" style="sketch=0;outlineConnect=0;fontColor=#232F3E;gradientColor=none;fillColor=#DD344C;strokeColor=none;dashed=0;verticalLabelPosition=bottom;verticalAlign=top;align=center;html=1;fontSize=12;fontStyle=0;aspect=fixed;pointerEvents=1;shape=mxgraph.aws4.permissions;" vertex="1" parent="CAdFPH2BEOfQs7NJBg0e-79">
          <mxGeometry x="282.7978833693306" y="70.19811320754717" width="62.175421166306705" height="78.22069114470843" as="geometry" />
        </mxCell>
        <mxCell id="CAdFPH2BEOfQs7NJBg0e-9" value="rLambdaJobFunction" style="sketch=0;outlineConnect=0;fontColor=#232F3E;gradientColor=none;fillColor=#ED7100;strokeColor=none;dashed=0;verticalLabelPosition=bottom;verticalAlign=top;align=center;html=1;fontSize=12;fontStyle=0;aspect=fixed;pointerEvents=1;shape=mxgraph.aws4.lambda_function;" vertex="1" parent="CAdFPH2BEOfQs7NJBg0e-79">
          <mxGeometry x="157.444211663067" y="521.4716981132075" width="48.13580993520519" height="48.13580993520519" as="geometry" />
        </mxCell>
        <mxCell id="CAdFPH2BEOfQs7NJBg0e-10" value="rMonitorEventSubscriber" style="sketch=0;outlineConnect=0;fontColor=#232F3E;gradientColor=none;fillColor=#ED7100;strokeColor=none;dashed=0;verticalLabelPosition=bottom;verticalAlign=top;align=center;html=1;fontSize=12;fontStyle=0;aspect=fixed;pointerEvents=1;shape=mxgraph.aws4.lambda_function;" vertex="1" parent="CAdFPH2BEOfQs7NJBg0e-79">
          <mxGeometry x="859.9261879049677" y="50.141509433962256" width="48.13580993520519" height="48.13580993520519" as="geometry" />
        </mxCell>
        <mxCell id="CAdFPH2BEOfQs7NJBg0e-11" value="rLambdaCrawlerFunction" style="sketch=0;outlineConnect=0;fontColor=#232F3E;gradientColor=none;fillColor=#ED7100;strokeColor=none;dashed=0;verticalLabelPosition=bottom;verticalAlign=top;align=center;html=1;fontSize=12;fontStyle=0;aspect=fixed;pointerEvents=1;shape=mxgraph.aws4.lambda_function;" vertex="1" parent="CAdFPH2BEOfQs7NJBg0e-79">
          <mxGeometry x="157.444211663067" y="315.8915094339622" width="48.13580993520519" height="48.13580993520519" as="geometry" />
        </mxCell>
        <mxCell id="CAdFPH2BEOfQs7NJBg0e-12" value="rLambdaExecutionRole" style="sketch=0;outlineConnect=0;fontColor=#232F3E;gradientColor=none;fillColor=#DD344C;strokeColor=none;dashed=0;verticalLabelPosition=bottom;verticalAlign=top;align=center;html=1;fontSize=12;fontStyle=0;aspect=fixed;pointerEvents=1;shape=mxgraph.aws4.role;" vertex="1" parent="CAdFPH2BEOfQs7NJBg0e-79">
          <mxGeometry x="333.440766738661" y="525.4830188679244" width="78.22069114470843" height="44.12449244060476" as="geometry" />
        </mxCell>
        <mxCell id="CAdFPH2BEOfQs7NJBg0e-13" value="LambdaJobInvokePermission" style="sketch=0;outlineConnect=0;fontColor=#232F3E;gradientColor=none;fillColor=#DD344C;strokeColor=none;dashed=0;verticalLabelPosition=bottom;verticalAlign=top;align=center;html=1;fontSize=12;fontStyle=0;aspect=fixed;pointerEvents=1;shape=mxgraph.aws4.permissions;" vertex="1" parent="CAdFPH2BEOfQs7NJBg0e-79">
          <mxGeometry x="402.63599352051847" y="689.9471698113206" width="62.175421166306705" height="78.22069114470843" as="geometry" />
        </mxCell>
        <mxCell id="CAdFPH2BEOfQs7NJBg0e-14" value="rLambdaExecutionRole" style="sketch=0;outlineConnect=0;fontColor=#232F3E;gradientColor=none;fillColor=#DD344C;strokeColor=none;dashed=0;verticalLabelPosition=bottom;verticalAlign=top;align=center;html=1;fontSize=12;fontStyle=0;aspect=fixed;pointerEvents=1;shape=mxgraph.aws4.role;" vertex="1" parent="CAdFPH2BEOfQs7NJBg0e-79">
          <mxGeometry x="324.41530237581" y="319.9028301886792" width="78.22069114470843" height="44.12449244060476" as="geometry" />
        </mxCell>
        <mxCell id="CAdFPH2BEOfQs7NJBg0e-15" value="rLambdaInvokePermission" style="sketch=0;outlineConnect=0;fontColor=#232F3E;gradientColor=none;fillColor=#DD344C;strokeColor=none;dashed=0;verticalLabelPosition=bottom;verticalAlign=top;align=center;html=1;fontSize=12;fontStyle=0;aspect=fixed;pointerEvents=1;shape=mxgraph.aws4.permissions;" vertex="1" parent="CAdFPH2BEOfQs7NJBg0e-79">
          <mxGeometry x="474.8397084233262" y="70.19811320754717" width="62.175421166306705" height="78.22069114470843" as="geometry" />
        </mxCell>
        <mxCell id="CAdFPH2BEOfQs7NJBg0e-16" value="rGlueCrawler" style="sketch=0;outlineConnect=0;fontColor=#232F3E;gradientColor=none;fillColor=#8C4FFF;strokeColor=none;dashed=0;verticalLabelPosition=bottom;verticalAlign=top;align=center;html=1;fontSize=12;fontStyle=0;aspect=fixed;pointerEvents=1;shape=mxgraph.aws4.glue_crawlers;" vertex="1" parent="CAdFPH2BEOfQs7NJBg0e-79">
          <mxGeometry x="805.2719870410369" y="770.1735849056603" width="78.22069114470843" height="78.22069114470843" as="geometry" />
        </mxCell>
        <mxCell id="CAdFPH2BEOfQs7NJBg0e-17" value="rGlueServiceRole" style="sketch=0;outlineConnect=0;fontColor=#232F3E;gradientColor=none;fillColor=#DD344C;strokeColor=none;dashed=0;verticalLabelPosition=bottom;verticalAlign=top;align=center;html=1;fontSize=12;fontStyle=0;aspect=fixed;pointerEvents=1;shape=mxgraph.aws4.role;" vertex="1" parent="CAdFPH2BEOfQs7NJBg0e-79">
          <mxGeometry x="985.7812742980564" y="780.2018867924527" width="78.22069114470843" height="44.12449244060476" as="geometry" />
        </mxCell>
        <mxCell id="CAdFPH2BEOfQs7NJBg0e-19" value="rGlueJob" style="sketch=0;points=[[0,0,0],[0.25,0,0],[0.5,0,0],[0.75,0,0],[1,0,0],[0,1,0],[0.25,1,0],[0.5,1,0],[0.75,1,0],[1,1,0],[0,0.25,0],[0,0.5,0],[0,0.75,0],[1,0.25,0],[1,0.5,0],[1,0.75,0]];outlineConnect=0;fontColor=#232F3E;fillColor=#8C4FFF;strokeColor=#ffffff;dashed=0;verticalLabelPosition=bottom;verticalAlign=top;align=center;html=1;fontSize=12;fontStyle=0;aspect=fixed;shape=mxgraph.aws4.resourceIcon;resIcon=mxgraph.aws4.glue;" vertex="1" parent="CAdFPH2BEOfQs7NJBg0e-79">
          <mxGeometry x="103.29142548596114" y="932.6320754716979" width="78.22069114470843" height="78.22069114470843" as="geometry" />
        </mxCell>
        <mxCell id="CAdFPH2BEOfQs7NJBg0e-20" value="rGlueServiceRole" style="sketch=0;outlineConnect=0;fontColor=#232F3E;gradientColor=none;fillColor=#DD344C;strokeColor=none;dashed=0;verticalLabelPosition=bottom;verticalAlign=top;align=center;html=1;fontSize=12;fontStyle=0;aspect=fixed;pointerEvents=1;shape=mxgraph.aws4.role;" vertex="1" parent="CAdFPH2BEOfQs7NJBg0e-79">
          <mxGeometry x="285.3049568034558" y="942.6603773584906" width="78.22069114470843" height="44.12449244060476" as="geometry" />
        </mxCell>
        <mxCell id="CAdFPH2BEOfQs7NJBg0e-22" value="rMonitorSecret" style="sketch=0;outlineConnect=0;fontColor=#232F3E;gradientColor=none;fillColor=#DD344C;strokeColor=none;dashed=0;verticalLabelPosition=bottom;verticalAlign=top;align=center;html=1;fontSize=12;fontStyle=0;aspect=fixed;pointerEvents=1;shape=mxgraph.aws4.addon;" vertex="1" parent="CAdFPH2BEOfQs7NJBg0e-79">
          <mxGeometry x="1207.4065658747302" y="58.16415094339622" width="78.22069114470843" height="40.11317494600433" as="geometry" />
        </mxCell>
        <mxCell id="CAdFPH2BEOfQs7NJBg0e-23" value="rMonitorLambdaRole" style="sketch=0;outlineConnect=0;fontColor=#232F3E;gradientColor=none;fillColor=#DD344C;strokeColor=none;dashed=0;verticalLabelPosition=bottom;verticalAlign=top;align=center;html=1;fontSize=12;fontStyle=0;aspect=fixed;pointerEvents=1;shape=mxgraph.aws4.role;" vertex="1" parent="CAdFPH2BEOfQs7NJBg0e-79">
          <mxGeometry x="1026.8972786177108" y="50.141509433962256" width="78.22069114470843" height="44.12449244060476" as="geometry" />
        </mxCell>
        <mxCell id="CAdFPH2BEOfQs7NJBg0e-25" value="rLandingBucket Permission Configuration Group" style="fillColor=none;strokeColor=#5A6C86;dashed=1;verticalAlign=top;fontStyle=0;fontColor=#5A6C86;whiteSpace=wrap;html=1;" vertex="1" parent="CAdFPH2BEOfQs7NJBg0e-79">
          <mxGeometry x="57.16127429805616" width="586.6551835853132" height="220.62264150943395" as="geometry" />
        </mxCell>
        <mxCell id="CAdFPH2BEOfQs7NJBg0e-26" value="rLambdaCrawlerFunction Permission Configuration Group" style="fillColor=none;strokeColor=#5A6C86;dashed=1;verticalAlign=top;fontStyle=0;fontColor=#5A6C86;whiteSpace=wrap;html=1;" vertex="1" parent="CAdFPH2BEOfQs7NJBg0e-79">
          <mxGeometry x="57.16127429805616" y="269.7613207547169" width="471.32980561555087" height="156.44150943396224" as="geometry" />
        </mxCell>
        <mxCell id="CAdFPH2BEOfQs7NJBg0e-27" value="rGlueDatabaseStateChangeEventRule" style="sketch=0;outlineConnect=0;fontColor=#232F3E;gradientColor=none;fillColor=#E7157B;strokeColor=none;dashed=0;verticalLabelPosition=bottom;verticalAlign=top;align=center;html=1;fontSize=12;fontStyle=0;aspect=fixed;pointerEvents=1;shape=mxgraph.aws4.rule_3;" vertex="1" parent="CAdFPH2BEOfQs7NJBg0e-79">
          <mxGeometry x="142.40177105831535" y="694.9613207547169" width="78.22069114470843" height="68.19239740820737" as="geometry" />
        </mxCell>
        <mxCell id="CAdFPH2BEOfQs7NJBg0e-28" value="rLambdaJobFunction Permission Configuration Group" style="fillColor=none;strokeColor=#5A6C86;dashed=1;verticalAlign=top;fontStyle=0;fontColor=#5A6C86;whiteSpace=wrap;html=1;" vertex="1" parent="CAdFPH2BEOfQs7NJBg0e-79">
          <mxGeometry x="57.16127429805616" y="480.35566037735845" width="486.3722462203025" height="141.39905660377354" as="geometry" />
        </mxCell>
        <mxCell id="CAdFPH2BEOfQs7NJBg0e-29" value="rGlueDatabaseStateChangeEventRule Permission Configuration Group" style="fillColor=none;strokeColor=#5A6C86;dashed=1;verticalAlign=top;fontStyle=0;fontColor=#5A6C86;whiteSpace=wrap;html=1;" vertex="1" parent="CAdFPH2BEOfQs7NJBg0e-79">
          <mxGeometry x="53.14995680345574" y="663.8735849056602" width="531.4995680345575" height="158.44716981132075" as="geometry" />
        </mxCell>
        <mxCell id="CAdFPH2BEOfQs7NJBg0e-30" value="rGlueJob Permission Configuration Group" style="fillColor=none;strokeColor=#5A6C86;dashed=1;verticalAlign=top;fontStyle=0;fontColor=#5A6C86;whiteSpace=wrap;html=1;" vertex="1" parent="CAdFPH2BEOfQs7NJBg0e-79">
          <mxGeometry x="53.14995680345574" y="889.5103773584904" width="441.24492440604763" height="173.48962264150944" as="geometry" />
        </mxCell>
        <mxCell id="CAdFPH2BEOfQs7NJBg0e-31" value="rGlueCrawler Permission Configuration Group" style="fillColor=none;strokeColor=#5A6C86;dashed=1;verticalAlign=top;fontStyle=0;fontColor=#5A6C86;whiteSpace=wrap;html=1;" vertex="1" parent="CAdFPH2BEOfQs7NJBg0e-79">
          <mxGeometry x="755.1305183585315" y="737.0801886792453" width="421.18833693304543" height="153.43301886792452" as="geometry" />
        </mxCell>
        <mxCell id="CAdFPH2BEOfQs7NJBg0e-33" value="rEventBridgeRole" style="sketch=0;outlineConnect=0;fontColor=#232F3E;gradientColor=none;fillColor=#DD344C;strokeColor=none;dashed=0;verticalLabelPosition=bottom;verticalAlign=top;align=center;html=1;fontSize=12;fontStyle=0;aspect=fixed;pointerEvents=1;shape=mxgraph.aws4.role;" vertex="1" parent="CAdFPH2BEOfQs7NJBg0e-79">
          <mxGeometry x="1004.8350323974084" y="319.9028301886792" width="78.22069114470843" height="44.12449244060476" as="geometry" />
        </mxCell>
        <mxCell id="CAdFPH2BEOfQs7NJBg0e-34" value="rEventBridgeRule" style="sketch=0;outlineConnect=0;fontColor=#232F3E;gradientColor=none;fillColor=#E7157B;strokeColor=none;dashed=0;verticalLabelPosition=bottom;verticalAlign=top;align=center;html=1;fontSize=12;fontStyle=0;aspect=fixed;pointerEvents=1;shape=mxgraph.aws4.rule_3;" vertex="1" parent="CAdFPH2BEOfQs7NJBg0e-79">
          <mxGeometry x="830.3427213822896" y="307.8688679245283" width="78.22069114470843" height="68.19239740820737" as="geometry" />
        </mxCell>
        <mxCell id="CAdFPH2BEOfQs7NJBg0e-36" value="rMonitorTopic" style="sketch=0;outlineConnect=0;fontColor=#232F3E;gradientColor=none;fillColor=#E7157B;strokeColor=none;dashed=0;verticalLabelPosition=bottom;verticalAlign=top;align=center;html=1;fontSize=12;fontStyle=0;aspect=fixed;pointerEvents=1;shape=mxgraph.aws4.topic;" vertex="1" parent="CAdFPH2BEOfQs7NJBg0e-79">
          <mxGeometry x="821.3172570194386" y="541.5283018867924" width="78.22069114470843" height="67.18956803455724" as="geometry" />
        </mxCell>
        <mxCell id="CAdFPH2BEOfQs7NJBg0e-37" value="rMonitorTopicPolicy" style="sketch=0;outlineConnect=0;fontColor=#232F3E;gradientColor=none;fillColor=#DD344C;strokeColor=none;dashed=0;verticalLabelPosition=bottom;verticalAlign=top;align=center;html=1;fontSize=12;fontStyle=0;aspect=fixed;pointerEvents=1;shape=mxgraph.aws4.permissions;" vertex="1" parent="CAdFPH2BEOfQs7NJBg0e-79">
          <mxGeometry x="1282.6187688984885" y="536.0127358490565" width="62.175421166306705" height="78.22069114470843" as="geometry" />
        </mxCell>
        <mxCell id="CAdFPH2BEOfQs7NJBg0e-39" value="rPermissionForSNS" style="sketch=0;outlineConnect=0;fontColor=#232F3E;gradientColor=none;fillColor=#DD344C;strokeColor=none;dashed=0;verticalLabelPosition=bottom;verticalAlign=top;align=center;html=1;fontSize=12;fontStyle=0;aspect=fixed;pointerEvents=1;shape=mxgraph.aws4.permissions;" vertex="1" parent="CAdFPH2BEOfQs7NJBg0e-79">
          <mxGeometry x="1142.2226565874735" y="536.0127358490565" width="62.175421166306705" height="78.22069114470843" as="geometry" />
        </mxCell>
        <mxCell id="CAdFPH2BEOfQs7NJBg0e-40" value="rMonitorTopicSubscription" style="sketch=0;outlineConnect=0;fontColor=#232F3E;gradientColor=none;fillColor=#DD344C;strokeColor=none;dashed=0;verticalLabelPosition=bottom;verticalAlign=top;align=center;html=1;fontSize=12;fontStyle=0;aspect=fixed;pointerEvents=1;shape=mxgraph.aws4.permissions;" vertex="1" parent="CAdFPH2BEOfQs7NJBg0e-79">
          <mxGeometry x="989.2911771058317" y="536.0127358490565" width="62.175421166306705" height="78.22069114470843" as="geometry" />
        </mxCell>
        <mxCell id="CAdFPH2BEOfQs7NJBg0e-41" value="rEventBridgeRule Permission Configuration Group" style="fillColor=none;strokeColor=#5A6C86;dashed=1;verticalAlign=top;fontStyle=0;fontColor=#5A6C86;whiteSpace=wrap;html=1;" vertex="1" parent="CAdFPH2BEOfQs7NJBg0e-79">
          <mxGeometry x="755.1305183585315" y="267.7556603773585" width="422.19116630669555" height="160.45283018867923" as="geometry" />
        </mxCell>
        <mxCell id="CAdFPH2BEOfQs7NJBg0e-42" value="rMonitorTopic Permission Configuration Group" style="fillColor=none;strokeColor=#5A6C86;dashed=1;verticalAlign=top;fontStyle=0;fontColor=#5A6C86;whiteSpace=wrap;html=1;" vertex="1" parent="CAdFPH2BEOfQs7NJBg0e-79">
          <mxGeometry x="765.1588120950325" y="484.36698113207547" width="627.7711879049677" height="187.52924528301884" as="geometry" />
        </mxCell>
        <mxCell id="CAdFPH2BEOfQs7NJBg0e-68" value="&lt;font style=&quot;font-size: 16px;&quot;&gt;1&lt;/font&gt;" style="ellipse;whiteSpace=wrap;html=1;fillColor=#33FF99;strokeColor=default;fontSize=8;" vertex="1" parent="CAdFPH2BEOfQs7NJBg0e-79">
          <mxGeometry y="4.01132075471698" width="46.13015118790498" height="46.13018867924528" as="geometry" />
        </mxCell>
        <mxCell id="CAdFPH2BEOfQs7NJBg0e-70" value="&lt;font style=&quot;font-size: 16px;&quot;&gt;2&lt;/font&gt;" style="ellipse;whiteSpace=wrap;html=1;fillColor=#33FF99;strokeColor=default;fontSize=8;" vertex="1" parent="CAdFPH2BEOfQs7NJBg0e-79">
          <mxGeometry y="271.76698113207544" width="46.13015118790498" height="46.13018867924528" as="geometry" />
        </mxCell>
        <mxCell id="CAdFPH2BEOfQs7NJBg0e-71" value="&lt;font style=&quot;font-size: 16px;&quot;&gt;3&lt;/font&gt;" style="ellipse;whiteSpace=wrap;html=1;fillColor=#33FF99;strokeColor=default;fontSize=8;" vertex="1" parent="CAdFPH2BEOfQs7NJBg0e-79">
          <mxGeometry y="480.35566037735845" width="46.13015118790498" height="46.13018867924528" as="geometry" />
        </mxCell>
        <mxCell id="CAdFPH2BEOfQs7NJBg0e-72" value="&lt;font style=&quot;font-size: 16px;&quot;&gt;4&lt;/font&gt;" style="ellipse;whiteSpace=wrap;html=1;fillColor=#33FF99;strokeColor=default;fontSize=8;" vertex="1" parent="CAdFPH2BEOfQs7NJBg0e-79">
          <mxGeometry y="663.8735849056602" width="46.13015118790498" height="46.13018867924528" as="geometry" />
        </mxCell>
        <mxCell id="CAdFPH2BEOfQs7NJBg0e-73" value="&lt;font style=&quot;font-size: 16px;&quot;&gt;5&lt;/font&gt;" style="ellipse;whiteSpace=wrap;html=1;fillColor=#33FF99;strokeColor=default;fontSize=8;" vertex="1" parent="CAdFPH2BEOfQs7NJBg0e-79">
          <mxGeometry y="889.5103773584904" width="46.13015118790498" height="46.13018867924528" as="geometry" />
        </mxCell>
        <mxCell id="CAdFPH2BEOfQs7NJBg0e-74" value="&lt;font style=&quot;font-size: 16px;&quot;&gt;6&lt;/font&gt;" style="ellipse;whiteSpace=wrap;html=1;fillColor=#33FF99;strokeColor=default;fontSize=8;" vertex="1" parent="CAdFPH2BEOfQs7NJBg0e-79">
          <mxGeometry x="704.989049676026" width="46.13015118790498" height="46.13018867924528" as="geometry" />
        </mxCell>
        <mxCell id="CAdFPH2BEOfQs7NJBg0e-75" value="&lt;font style=&quot;font-size: 16px;&quot;&gt;7&lt;/font&gt;" style="ellipse;whiteSpace=wrap;html=1;fillColor=#33FF99;strokeColor=default;fontSize=8;" vertex="1" parent="CAdFPH2BEOfQs7NJBg0e-79">
          <mxGeometry x="704.989049676026" y="267.7556603773585" width="46.13015118790498" height="46.13018867924528" as="geometry" />
        </mxCell>
        <mxCell id="CAdFPH2BEOfQs7NJBg0e-76" value="&lt;span style=&quot;font-size: 16px;&quot;&gt;8&lt;/span&gt;" style="ellipse;whiteSpace=wrap;html=1;fillColor=#33FF99;strokeColor=default;fontSize=8;" vertex="1" parent="CAdFPH2BEOfQs7NJBg0e-79">
          <mxGeometry x="704.989049676026" y="484.36698113207547" width="46.13015118790498" height="46.13018867924528" as="geometry" />
        </mxCell>
        <mxCell id="CAdFPH2BEOfQs7NJBg0e-77" value="&lt;span style=&quot;font-size: 16px;&quot;&gt;9&lt;/span&gt;" style="ellipse;whiteSpace=wrap;html=1;fillColor=#33FF99;strokeColor=default;fontSize=8;" vertex="1" parent="CAdFPH2BEOfQs7NJBg0e-79">
          <mxGeometry x="704.989049676026" y="737.0801886792453" width="46.13015118790498" height="46.13018867924528" as="geometry" />
        </mxCell>
        <mxCell id="CAdFPH2BEOfQs7NJBg0e-81" value="&lt;b&gt;Permission Configuration Group&lt;/b&gt;" style="fillColor=none;strokeColor=#5A6C86;dashed=1;verticalAlign=top;fontStyle=0;fontColor=#5A6C86;whiteSpace=wrap;html=1;" vertex="1" parent="CAdFPH2BEOfQs7NJBg0e-82">
          <mxGeometry width="1580" height="1210" as="geometry" />
        </mxCell>
      </root>
    </mxGraphModel>
  </diagram>
</mxfile>
